<?xml version="1.0" standalone="no"?>
<!DOCTYPE svg PUBLIC "-//W3C//DTD SVG 20010904//EN"
 "http://www.w3.org/TR/2001/REC-SVG-20010904/DTD/svg10.dtd">
<svg version="1.0" xmlns="http://www.w3.org/2000/svg"
 width="512.000000pt" height="512.000000pt" viewBox="0 0 512.000000 512.000000"
 preserveAspectRatio="xMidYMid meet">

<g transform="translate(0.000000,512.000000) scale(0.100000,-0.100000)"
fill="#000000" stroke="none">
<path d="M326 3838 c-8 -13 -22 -45 -33 -73 -17 -47 -18 -111 -21 -1155 -2
-778 0 -1124 8 -1170 6 -36 24 -92 40 -125 58 -120 51 -116 1095 -713 528
-302 982 -556 1010 -566 27 -9 79 -19 115 -22 133 -11 117 -19 1155 575 523
299 970 558 994 577 58 44 114 120 143 192 l23 57 0 1155 0 1155 -23 55 c-12
30 -26 61 -31 69 -7 11 -244 -122 -1118 -629 -609 -354 -1113 -643 -1118 -643
-8 0 -2022 1162 -2192 1265 l-32 19 -15 -23z m510 -745 c137 -46 227 -158 228
-285 1 -61 -15 -93 -68 -132 -62 -47 -198 -12 -279 70 -68 69 -110 180 -93
248 14 54 87 115 142 116 11 0 43 -7 70 -17z m3598 -11 c158 -90 41 -368 -177
-423 -85 -21 -162 24 -188 111 -23 78 43 213 135 277 89 61 164 72 230 35z
m-2430 -703 c186 -69 279 -319 150 -404 -49 -32 -91 -35 -162 -13 -55 17 -76
30 -127 81 -68 69 -95 127 -95 207 0 57 30 107 80 132 46 23 87 23 154 -3z
m1907 -272 c103 -68 83 -228 -41 -340 -51 -46 -139 -87 -186 -87 -65 0 -124
49 -145 120 -14 47 6 125 52 193 75 113 236 171 320 114z m-3036 -266 c114
-54 189 -162 189 -271 1 -135 -118 -190 -260 -120 -185 91 -246 332 -102 403
50 25 105 21 173 -12z m1142 -703 c106 -39 195 -163 197 -274 0 -60 -18 -94
-74 -131 -94 -65 -270 19 -341 162 -27 56 -31 72 -27 125 4 54 9 65 40 96 56
56 100 61 205 22z m1364 -1 c49 -33 71 -81 65 -143 -17 -183 -254 -345 -375
-257 -42 31 -73 101 -66 148 11 67 52 141 110 194 88 80 197 104 266 58z"/>
</g>
</svg>
